<svg xmlns="http://www.w3.org/2000/svg" viewBox="0 0 465.65 116.12"><defs><style>.cls-1{fill:#fff;}</style></defs><g id="Layer_2" data-name="Layer 2"><g id="Layer_1-2" data-name="Layer 1"><path class="cls-1" d="M113,57.69a3.25,3.25,0,0,0,1.33-3.21l-3.39-19.17a3.22,3.22,0,0,0-3.73-2.61l-3.17.56,4.83,27.3ZM99.57,0H16A16,16,0,0,0,0,16V41.5a9.67,9.67,0,0,1,9.5-3.87l3.17.56L13,36.08a6.43,6.43,0,0,1,7.46-5.21l33.79,6A6.39,6.39,0,0,1,56.94,38L56.07,33a6.42,6.42,0,0,1,5.21-7.45l33.79-6a6.44,6.44,0,0,1,7.46,5.21l.37,2.12,3.17-.56a9.64,9.64,0,0,1,9.5,3.87V16A16,16,0,0,0,99.57,0ZM95.4,26.08,63.2,31.77a.82.82,0,0,0-.66.93l7.94,44.88a.8.8,0,0,0,.93.65h0l32.21-5.7a.8.8,0,0,0,.65-.93L96.33,26.73A.8.8,0,0,0,95.4,26.08ZM80.06,70.17a3.22,3.22,0,0,1-3.73-2.61L71.48,40.11A3.21,3.21,0,1,1,77.81,39l4.86,27.45A3.22,3.22,0,0,1,80.06,70.17Zm12.67-2.24A3.23,3.23,0,0,1,89,65.32L84.15,37.87a3.21,3.21,0,1,1,6.33-1.12L95.34,64.2A3.22,3.22,0,0,1,92.73,67.93ZM12,83.8l32.21,5.7h0a.81.81,0,0,0,.93-.66L53,44a.8.8,0,0,0-.65-.93l-32.21-5.7a.8.8,0,0,0-.93.65L11.3,82.87A.8.8,0,0,0,12,83.8Zm21-6.09,4.86-27.46a3.22,3.22,0,0,1,6.34,1.12L39.24,78.83a3.22,3.22,0,0,1-6.34-1.12ZM20.23,75.46,25.09,48a3.21,3.21,0,1,1,6.33,1.12L26.57,76.59a3.22,3.22,0,0,1-6.34-1.13Zm90.51-4.19a6.43,6.43,0,0,1-5.21,7.46l-33.79,6a6.44,6.44,0,0,1-7.45-5.22L58.78,48.37l-7.5,42.39A6.42,6.42,0,0,1,43.83,96L10,90a6.43,6.43,0,0,1-5.21-7.46l.66-3.74L0,75V99.57a16,16,0,0,0,16,16H99.57a16,16,0,0,0,16-16V63.72l-5.49,3.81ZM4.66,46.58,1.26,65.75A3.25,3.25,0,0,0,2.59,69l4.13,2.87,4.83-27.29L8.38,44A3.21,3.21,0,0,0,4.66,46.58Z"/><path class="cls-1" d="M173.32,10.94a17.76,17.76,0,0,1,1.75,7.94,17.54,17.54,0,0,1-1.75,7.91,15.6,15.6,0,0,1-4.51,5.62,18.74,18.74,0,0,1-11.57,4.31h-8.42v7.6a18.94,18.94,0,0,1-.1,2.32,5.48,5.48,0,0,1-.64,1.79q-.95,1.82-5.25,1.81-4.71,0-5.52-2.49a11.56,11.56,0,0,1-.4-3.5V6.9a19.05,19.05,0,0,1,.1-2.32,5.44,5.44,0,0,1,.64-1.78Q138.6,1,142.9,1h14.4a18.67,18.67,0,0,1,11.51,4.31A15.46,15.46,0,0,1,173.32,10.94Zm-12,12.38a5.21,5.21,0,0,0,1.95-4.44,5.31,5.31,0,0,0-1.95-4.47,6.5,6.5,0,0,0-4-1.52h-8.42V24.8h8.48A6.49,6.49,0,0,0,161.27,23.32Z"/><path class="cls-1" d="M202.59.37a23.9,23.9,0,0,1,17.3,7.21,24,24,0,0,1,7.33,17.86,25.69,25.69,0,0,1-7,18.17A22.62,22.62,0,0,1,203,51.12a23.31,23.31,0,0,1-17.4-7.41,24.45,24.45,0,0,1-7.17-17.63,27.19,27.19,0,0,1,2-10.46,24.2,24.2,0,0,1,5.39-8.18,25.16,25.16,0,0,1,7.74-5.18A22.48,22.48,0,0,1,202.59.37ZM190.35,25.75a12.9,12.9,0,0,0,3.87,9.72,11.94,11.94,0,0,0,17.26.1,12.82,12.82,0,0,0,3.83-9.76A13,13,0,0,0,211.44,16a12.2,12.2,0,0,0-8.64-3.7A12.06,12.06,0,0,0,194.18,16,13,13,0,0,0,190.35,25.75Z"/><path class="cls-1" d="M290.62,1.25c3,1.08,4.51,2.51,4.51,4.31a13,13,0,0,1-.81,3.29L281.4,46.2a7.17,7.17,0,0,1-.47,1.15,6.47,6.47,0,0,1-1.79,1.78,5.85,5.85,0,0,1-6.86,0A6,6,0,0,1,270.36,47l-7.87-23.22L254.88,46.2a5.85,5.85,0,0,1-.6,1.15,8.33,8.33,0,0,1-1.08,1.34,5,5,0,0,1-3.7,1.55,5.77,5.77,0,0,1-3.53-1,5.5,5.5,0,0,1-1.85-2l-.48-1-13-37.35a11.52,11.52,0,0,1-.74-3.29q0-2.7,4.51-4.24A10.89,10.89,0,0,1,238,.64a2.89,2.89,0,0,1,2.42,1.08A10.22,10.22,0,0,1,241.89,5L249.3,27.5l7.33-22.15a6.14,6.14,0,0,1,3.44-3.9A7,7,0,0,1,262.86,1a5.2,5.2,0,0,1,3.19,1.11,5.26,5.26,0,0,1,1.89,2.19l7.74,23.35L283.08,5c.36-1,.65-1.8.88-2.29a4,4,0,0,1,1.24-1.45,3.58,3.58,0,0,1,2.26-.7A9.29,9.29,0,0,1,290.62,1.25Z"/><path class="cls-1" d="M310.74,38.4h20.73a18.94,18.94,0,0,1,2.32.1,5.36,5.36,0,0,1,1.78.64c1.22.63,1.82,2.38,1.82,5.25q0,4.71-2.49,5.52a11.56,11.56,0,0,1-3.5.4H304.75q-4.71,0-5.52-2.56a10.54,10.54,0,0,1-.4-3.43V6.9c0-2.29.43-3.84,1.28-4.68S302.58,1,305,1h26.52a18.94,18.94,0,0,1,2.32.1,5.36,5.36,0,0,1,1.78.64c1.22.63,1.82,2.38,1.82,5.25q0,4.71-2.49,5.52a11.24,11.24,0,0,1-3.5.4H310.74v6.8h13.33a19.05,19.05,0,0,1,2.32.1,5.44,5.44,0,0,1,1.78.64q1.81.95,1.82,5.25,0,4.71-2.56,5.52a11.24,11.24,0,0,1-3.5.4H310.74Z"/><path class="cls-1" d="M379.52,42a10.84,10.84,0,0,1,1,3.5q0,2.57-4.17,4.31a9.22,9.22,0,0,1-3.47.94,3.43,3.43,0,0,1-2.15-.64,4.76,4.76,0,0,1-1.25-1.31q-.67-1.27-5.25-12.18l-2.08.14h-8.48v7.6a21.24,21.24,0,0,1-.1,2.32,5.48,5.48,0,0,1-.64,1.79q-.94,1.82-5.25,1.81-4.71,0-5.52-2.49a11.24,11.24,0,0,1-.4-3.5V6.9a19.05,19.05,0,0,1,.1-2.32,5.22,5.22,0,0,1,.64-1.78Q343.44,1,347.76,1h14.53A18.67,18.67,0,0,1,373.8,5.29a15.84,15.84,0,0,1,4.44,5.65A17.76,17.76,0,0,1,380,18.88a16.71,16.71,0,0,1-5.05,12.52Q376.43,35,379.52,42ZM353.68,24.8h8.61a6.42,6.42,0,0,0,3.9-1.48,5.19,5.19,0,0,0,2-4.44,5.29,5.29,0,0,0-2-4.47,6.5,6.5,0,0,0-4-1.52h-8.48Z"/><path class="cls-1" d="M190.4,67.8a2.93,2.93,0,0,1,1.81-1.42,10.93,10.93,0,0,1,3.23-.4,11.11,11.11,0,0,1,3.1.34,5.31,5.31,0,0,1,1.75.8,3.09,3.09,0,0,1,.94,1.35,13.1,13.1,0,0,1,.34,3.5v37.35a18.94,18.94,0,0,1-.1,2.32,5.48,5.48,0,0,1-.64,1.79q-.95,1.81-5.25,1.81-4.71,0-5.52-2.49a11.24,11.24,0,0,1-.4-3.5V95.59H171.82v13.73a18.94,18.94,0,0,1-.1,2.32,5.48,5.48,0,0,1-.64,1.79q-.95,1.81-5.25,1.81-4.71,0-5.52-2.49a11.56,11.56,0,0,1-.4-3.5V71.9a19.05,19.05,0,0,1,.1-2.32,5.44,5.44,0,0,1,.64-1.78Q161.6,66,165.9,66q4.71,0,5.59,2.49a13.63,13.63,0,0,1,.33,3.5V85.7h17.84V71.9a19.05,19.05,0,0,1,.1-2.32A5.44,5.44,0,0,1,190.4,67.8Z"/><path class="cls-1" d="M230.1,65.37a24.82,24.82,0,0,1,24.63,25.07,25.66,25.66,0,0,1-7,18.17,22.59,22.59,0,0,1-17.22,7.51,23.31,23.31,0,0,1-17.4-7.41,24.45,24.45,0,0,1-7.17-17.63,27.19,27.19,0,0,1,2-10.46,24.32,24.32,0,0,1,5.38-8.18,25.39,25.39,0,0,1,7.74-5.18A22.56,22.56,0,0,1,230.1,65.37ZM217.85,90.75a12.9,12.9,0,0,0,3.87,9.72,11.95,11.95,0,0,0,17.27.1,12.82,12.82,0,0,0,3.83-9.76A13,13,0,0,0,239,81a12.21,12.21,0,0,0-8.65-3.7A12.06,12.06,0,0,0,221.69,81,13,13,0,0,0,217.85,90.75Z"/><path class="cls-1" d="M291.34,67.8a3.43,3.43,0,0,1,2-1.48,10.66,10.66,0,0,1,3.19-.41,11.33,11.33,0,0,1,3.06.34,5,5,0,0,1,1.75.81,2.58,2.58,0,0,1,.88,1.41,11.24,11.24,0,0,1,.4,3.5V92.29a26.09,26.09,0,0,1-5.52,16.16,20.12,20.12,0,0,1-6.93,5.55,20.7,20.7,0,0,1-9.39,2.12,20.15,20.15,0,0,1-9.35-2.16,19.47,19.47,0,0,1-6.83-5.65,25.92,25.92,0,0,1-5.45-16.15V71.9a19.94,19.94,0,0,1,.1-2.39,5.44,5.44,0,0,1,.64-1.78,3,3,0,0,1,1.82-1.41,14.55,14.55,0,0,1,6.86,0,2.7,2.7,0,0,1,1.75,1.41,9.24,9.24,0,0,1,.81,4.24V92.16a16,16,0,0,0,2,7.81,7.53,7.53,0,0,0,3,3,9.41,9.41,0,0,0,4.77,1.15,8.21,8.21,0,0,0,7.34-3.64,14.82,14.82,0,0,0,2.42-8.41V71.5A7.39,7.39,0,0,1,291.34,67.8Z"/><path class="cls-1" d="M345.72,107a10.84,10.84,0,0,1,1,3.5q0,2.57-4.17,4.31a9.22,9.22,0,0,1-3.47.94,3.43,3.43,0,0,1-2.15-.64,4.76,4.76,0,0,1-1.25-1.31q-.68-1.28-5.25-12.18l-2.08.14h-8.48v7.6a21.24,21.24,0,0,1-.1,2.32,5.48,5.48,0,0,1-.64,1.79q-.94,1.81-5.25,1.81-4.71,0-5.52-2.49a11.24,11.24,0,0,1-.4-3.5V71.9a19.05,19.05,0,0,1,.1-2.32,5.44,5.44,0,0,1,.64-1.78Q309.64,66,314,66h14.53A18.67,18.67,0,0,1,340,70.29a15.73,15.73,0,0,1,4.44,5.65,17.76,17.76,0,0,1,1.75,7.94,16.71,16.71,0,0,1-5.05,12.52Q342.63,100,345.72,107ZM319.88,89.8h8.61a6.46,6.46,0,0,0,3.91-1.48,5.21,5.21,0,0,0,2-4.44,5.31,5.31,0,0,0-2-4.47,6.55,6.55,0,0,0-4-1.52h-8.48Z"/><path class="cls-1" d="M370.69,65.91h37.42a7.37,7.37,0,0,1,3.16.51A2.56,2.56,0,0,1,412.62,68a9.93,9.93,0,0,1,.33,2.83,9.58,9.58,0,0,1-.33,2.79,2.35,2.35,0,0,1-1.15,1.45,7.9,7.9,0,0,1-3.43.6H395.18v33.85a18.17,18.17,0,0,1-.1,2.29,5.45,5.45,0,0,1-.6,1.72,2.86,2.86,0,0,1-1.79,1.38,11.77,11.77,0,0,1-3.36.4,11.44,11.44,0,0,1-3.33-.4,2.86,2.86,0,0,1-1.75-1.38,5.48,5.48,0,0,1-.61-1.75,21.45,21.45,0,0,1-.1-2.33V75.67H370.62a7.52,7.52,0,0,1-3.16-.5,2.57,2.57,0,0,1-1.35-1.59,9.8,9.8,0,0,1-.33-2.82,9.49,9.49,0,0,1,.33-2.79,2.33,2.33,0,0,1,1.15-1.45A7.71,7.71,0,0,1,370.69,65.91Z"/><path class="cls-1" d="M461.68,66.72c2.64,1.3,4,2.74,4,4.31a8.73,8.73,0,0,1-1,3.23L446.06,112a5.71,5.71,0,0,1-2.25,2.38,6,6,0,0,1-3.13.91H440a6.07,6.07,0,0,1-3.2-.91,5.8,5.8,0,0,1-2.26-2.38L416,74.26A8.73,8.73,0,0,1,415,71q0-2.36,4-4.31a8.35,8.35,0,0,1,3.4-1.14,4.55,4.55,0,0,1,1.78.27,3.09,3.09,0,0,1,1.15.94,13.46,13.46,0,0,1,1.11,1.78c.33.65,1.2,2.51,2.59,5.59s2.88,6.33,4.47,9.79,3.1,6.72,4.51,9.79,2.21,4.79,2.39,5.15L453.8,69.41c.36-.85.67-1.52.94-2a3.52,3.52,0,0,1,3-1.81A8.94,8.94,0,0,1,461.68,66.72Z"/></g></g></svg>